<?xml version="1.0" encoding="utf-8"?>
<!-- Generator: Adobe Illustrator 25.4.1, SVG Export Plug-In . SVG Version: 6.00 Build 0)  -->
<svg version="1.0" id="레이어_1" xmlns="http://www.w3.org/2000/svg" xmlns:xlink="http://www.w3.org/1999/xlink" x="0px"
	 y="0px" width="180px" height="80px" viewBox="0 0 428.86 190.24" style="enable-background:new 0 0 428.86 190.24;" xml:space="preserve">
<style type="text/css">
	.st0{fill:#FFFFFF;}
</style>
<path class="st0" d="M26.02,165.85h3.57l-5.49,17.81h-3.85l-4.33-13.88l-4.05,13.88H8.03l-5.49-17.81h3.61l3.85,15.04l4.29-15.04
	h3.29l4.57,15.04L26.02,165.85z"/>
<path class="st0" d="M49.5,174.72c0,3.37-0.69,5.75-2.06,7.14c-1.38,1.39-3.73,2.09-7.07,2.09c-3.45,0-5.84-0.67-7.17-2.02
	c-1.34-1.34-2-3.75-2-7.21c0-3.39,0.69-5.78,2.06-7.16c1.37-1.38,3.74-2.07,7.11-2.07c3.45,0,5.83,0.67,7.15,2.02
	C48.83,168.86,49.5,171.26,49.5,174.72z M34.47,174.68c0,2.65,0.39,4.39,1.16,5.25c0.78,0.85,2.35,1.28,4.73,1.28
	c2.3,0,3.85-0.45,4.65-1.35c0.8-0.9,1.2-2.63,1.2-5.17c0-2.64-0.38-4.39-1.14-5.25c-0.76-0.85-2.33-1.28-4.71-1.28
	c-2.32,0-3.89,0.45-4.69,1.34S34.47,172.11,34.47,174.68z"/>
<path class="st0" d="M70.65,174.72c0,3.37-0.69,5.75-2.06,7.14c-1.38,1.39-3.73,2.09-7.07,2.09c-3.45,0-5.84-0.67-7.17-2.02
	c-1.34-1.34-2-3.75-2-7.21c0-3.39,0.69-5.78,2.06-7.16c1.37-1.38,3.74-2.07,7.11-2.07c3.45,0,5.83,0.67,7.15,2.02
	C69.99,168.86,70.65,171.26,70.65,174.72z M55.63,174.68c0,2.65,0.39,4.39,1.16,5.25c0.78,0.85,2.35,1.28,4.73,1.28
	c2.3,0,3.85-0.45,4.65-1.35c0.8-0.9,1.2-2.63,1.2-5.17c0-2.64-0.38-4.39-1.14-5.25c-0.76-0.85-2.33-1.28-4.71-1.28
	c-2.32,0-3.89,0.45-4.69,1.34S55.63,172.11,55.63,174.68z"/>
<path class="st0" d="M87.52,159.69h3.29v23.98h-2.85l-0.24-1.66h-0.08c-0.78,0.65-1.72,1.13-2.82,1.46
	c-1.11,0.33-2.38,0.49-3.83,0.49c-2.7,0-4.63-0.72-5.79-2.16c-1.16-1.44-1.74-3.8-1.74-7.07c0-3.27,0.71-5.62,2.12-7.07
	c1.42-1.44,3.78-2.16,7.09-2.16c0.93,0,1.81,0.07,2.62,0.2s1.56,0.32,2.22,0.56V159.69z M83.07,168.16c-2.48,0-4.16,0.47-5.03,1.41
	c-0.87,0.94-1.3,2.66-1.3,5.16c0,2.43,0.38,4.12,1.14,5.07c0.76,0.95,2.18,1.42,4.27,1.42c0.99,0,1.94-0.11,2.84-0.34
	c0.91-0.23,1.75-0.57,2.52-1.03v-10.96c-0.64-0.24-1.32-0.42-2.04-0.54C84.75,168.22,83.95,168.16,83.07,168.16z"/>
<path class="st0" d="M110.35,180.2v2.49c-0.7,0.34-1.72,0.63-3.07,0.88c-1.35,0.25-2.72,0.38-4.11,0.38c-3.1,0-5.31-0.72-6.65-2.16
	c-1.34-1.44-2-3.82-2-7.14c0-3.2,0.69-5.52,2.08-6.98c1.39-1.45,3.61-2.18,6.65-2.18c2.83,0,4.86,0.57,6.09,1.71
	c1.23,1.14,1.84,3.05,1.84,5.71c0,0.48-0.01,0.92-0.04,1.33c-0.03,0.41-0.08,0.9-0.16,1.48H97.85c0.03,1.97,0.47,3.38,1.34,4.22
	c0.87,0.84,2.37,1.26,4.51,1.26c1.15,0,2.35-0.1,3.61-0.29C108.56,180.73,109.58,180.49,110.35,180.2z M108.19,172.52
	c-0.03-1.59-0.41-2.71-1.16-3.37c-0.75-0.66-2-0.99-3.77-0.99c-1.98,0-3.37,0.38-4.19,1.14c-0.81,0.76-1.22,2.09-1.22,3.98h10.3
	c0-0.05,0.01-0.16,0.02-0.34C108.18,172.76,108.19,172.62,108.19,172.52z"/>
<path class="st0" d="M118.13,183.66h-3.29v-17.81h2.84l0.16,1.73h0.12c1.07-0.72,2.18-1.25,3.35-1.58c1.16-0.34,2.46-0.51,3.91-0.51
	c2.19,0,3.85,0.49,4.99,1.48c1.13,0.99,1.7,2.44,1.7,4.36v12.33h-3.29v-11.97c0-1.2-0.37-2.09-1.12-2.67
	c-0.75-0.58-1.9-0.87-3.45-0.87c-0.96,0-1.94,0.14-2.94,0.42c-1,0.28-2,0.68-2.98,1.21V183.66z"/>
<path class="st0" d="M145.97,183.66h-3.29v-23.98h3.29v7.61c1.2-0.6,2.4-1.05,3.58-1.35c1.19-0.3,2.37-0.45,3.55-0.45
	c2.19,0,3.84,0.49,4.95,1.48c1.11,0.99,1.66,2.44,1.66,4.36v12.33h-3.29v-11.97c0-1.23-0.35-2.12-1.06-2.68
	c-0.71-0.56-1.81-0.85-3.31-0.85c-0.99,0-2.01,0.12-3.06,0.36c-1.06,0.24-2.06,0.58-3.02,1.01V183.66z"/>
<path class="st0" d="M181.63,174.72c0,3.37-0.69,5.75-2.06,7.14c-1.38,1.39-3.73,2.09-7.07,2.09c-3.45,0-5.84-0.67-7.17-2.02
	c-1.34-1.34-2-3.75-2-7.21c0-3.39,0.69-5.78,2.06-7.16c1.37-1.38,3.74-2.07,7.11-2.07c3.45,0,5.83,0.67,7.15,2.02
	C180.96,168.86,181.63,171.26,181.63,174.72z M166.6,174.68c0,2.65,0.39,4.39,1.16,5.25s2.35,1.28,4.73,1.28
	c2.3,0,3.85-0.45,4.65-1.35c0.8-0.9,1.2-2.63,1.2-5.17c0-2.64-0.38-4.39-1.14-5.25c-0.76-0.85-2.33-1.28-4.71-1.28
	c-2.32,0-3.89,0.45-4.69,1.34C167,170.38,166.6,172.11,166.6,174.68z"/>
<path class="st0" d="M191.8,183.95c-2.19,0-3.83-0.49-4.93-1.48c-1.1-0.99-1.64-2.46-1.64-4.43v-12.19h3.29v11.83
	c0,1.23,0.35,2.12,1.04,2.67c0.69,0.56,1.79,0.83,3.29,0.83c0.91,0,1.82-0.1,2.74-0.31c0.92-0.2,1.85-0.52,2.79-0.96v-14.06h3.28
	v17.81h-3l-0.16-1.48h-0.08c-1.39,0.65-2.59,1.11-3.61,1.37C193.79,183.82,192.79,183.95,191.8,183.95z"/>
<path class="st0" d="M213.15,168.16c-1.71,0-2.89,0.18-3.55,0.54c-0.65,0.36-0.98,1.09-0.98,2.2c0,0.58,0.15,1.01,0.46,1.32
	s0.79,0.5,1.46,0.6l5.09,0.68c1.6,0.22,2.72,0.67,3.36,1.35c0.64,0.68,0.96,1.76,0.96,3.23c0,2.07-0.55,3.57-1.64,4.49
	c-1.1,0.93-2.91,1.39-5.45,1.39c-1.52,0-2.94-0.07-4.25-0.22c-1.31-0.14-2.39-0.34-3.24-0.57v-2.78c0.85,0.24,1.9,0.44,3.15,0.59
	c1.24,0.16,2.52,0.23,3.83,0.23c1.66,0,2.79-0.22,3.41-0.65c0.61-0.43,0.92-1.2,0.92-2.31c0-0.7-0.17-1.21-0.52-1.53
	c-0.35-0.32-0.98-0.55-1.88-0.67l-5.09-0.68c-1.28-0.17-2.24-0.61-2.86-1.34c-0.63-0.72-0.95-1.77-0.98-3.14
	c0-1.88,0.62-3.24,1.86-4.11c1.24-0.87,3.16-1.3,5.75-1.3c1.07,0,2.04,0.02,2.91,0.07c0.87,0.05,1.78,0.14,2.74,0.29v2.63
	c-0.7-0.1-1.51-0.17-2.44-0.23C215.22,168.19,214.22,168.16,213.15,168.16z"/>
<path class="st0" d="M226.74,162.75h-3.53v-3.07h3.53V162.75z M226.62,183.66h-3.29v-17.81h3.29V183.66z"/>
<path class="st0" d="M234.59,183.66h-3.29v-17.81h2.84l0.16,1.73h0.12c1.07-0.72,2.18-1.25,3.35-1.58c1.16-0.34,2.46-0.51,3.91-0.51
	c2.19,0,3.85,0.49,4.99,1.48c1.13,0.99,1.7,2.44,1.7,4.36v12.33h-3.29v-11.97c0-1.2-0.37-2.09-1.12-2.67
	c-0.75-0.58-1.9-0.87-3.45-0.87c-0.96,0-1.94,0.14-2.94,0.42c-1,0.28-2,0.68-2.98,1.21V183.66z"/>
<path class="st0" d="M260.95,189.51c-1.34,0-2.58-0.08-3.75-0.23c-1.16-0.16-2.12-0.37-2.86-0.63v-2.63c0.61,0.22,1.52,0.4,2.7,0.54
	c1.19,0.14,2.37,0.22,3.55,0.22c2,0,3.39-0.35,4.17-1.06c0.77-0.71,1.16-1.97,1.16-3.77v-1.12c-0.99,0.53-2.04,0.93-3.16,1.21
	c-1.12,0.28-2.26,0.42-3.41,0.42c-2.64,0-4.53-0.66-5.67-1.98c-1.14-1.32-1.7-3.49-1.7-6.49c0-3.05,0.73-5.23,2.18-6.53
	c1.45-1.3,3.93-1.95,7.43-1.95c1.26,0,2.6,0.07,4.05,0.2s2.63,0.3,3.57,0.49v14.93c0,3.13-0.61,5.31-1.84,6.54
	C266.13,188.89,263.99,189.51,260.95,189.51z M261.59,168.16c-2.56,0-4.26,0.4-5.09,1.19c-0.83,0.79-1.24,2.33-1.24,4.61
	c0,2.16,0.35,3.66,1.06,4.49c0.71,0.83,2.08,1.24,4.11,1.24c0.88,0,1.8-0.11,2.74-0.34c0.95-0.23,1.86-0.55,2.74-0.96v-9.84
	c-0.64-0.12-1.33-0.22-2.06-0.29C263.12,168.19,262.37,168.16,261.59,168.16z"/>
<polygon class="st0" points="420.03,64.95 415.04,77.62 143.35,14.26 97.65,29.31 55.28,29.31 141.69,0 "/>
<path class="st0" d="M0.16,47.83v-0.78h62.88c19.17,0,44.73,4.71,44.73,23.79c0,3.53-1.02,7.32-3.19,10.46
	c-6.54,9.15-24.4,12.68-30.64,13.59l4.36,0.39c11.47,1.05,28.61,4.31,35.29,18.95c1.45,3.14,2.03,6.27,2.03,9.41
	c0,4.7-1.6,9.28-4.5,12.94c-9.15,11.63-22.66,12.81-42.12,12.81H0.16v-0.78h0.87c15.39,0,16.41-3.92,16.41-15.16V62.99
	c0-11.24-1.02-15.16-16.41-15.16H0.16z M74.66,73.45c0-5.75-0.44-11.5-1.02-15.69c-1.02-9.28-10.02-9.93-19.75-9.93H50.7v46.66h7.41
	C70.16,94.49,74.66,93.58,74.66,73.45z M76.4,139.33c0.87-3.27,1.6-9.8,1.6-16.86c0-9.15-1.31-19.09-5.37-23.14
	c-3.49-3.53-11.18-3.92-16.99-3.92H50.7v41.3c0,10.85,1.45,11.89,10.31,11.89C71.61,148.61,74.22,147.04,76.4,139.33z"/>
<path class="st0" d="M195.2,141.03c0,2.09,0,5.75,2.32,5.75c2.03,0,6.97-3.79,7.41-17.65h1.02c0,3.14-0.87,15.55-7.55,18.69
	c-3.34,1.7-7.7,2.48-11.76,2.48c-2.91,0-5.52-0.39-7.7-1.18c-8.13-2.88-10.6-5.88-12.93-13.59c-3.05,8.63-7.41,12.16-11.47,13.59
	c-2.18,0.78-4.79,0.91-7.99,0.91c-12.34,0-24.98-3.14-24.98-17.38c0-2.09,0.44-4.18,1.02-6.01c3.19-9.28,9.73-10.19,19.75-11.76
	l3.49-0.52c19.31-2.88,20.19-11.9,20.19-19.61c0-12.68-4.94-13.73-10.46-13.73c-3.05,0-12.05,0.39-14.96,6.8
	c0.87-0.39,2.03-0.52,3.2-0.52c5.23,0,12.2,3.53,12.2,10.85c0,7.84-7.55,12.81-14.67,12.81c-7.12,0-14.09-5.1-14.09-13.07
	c0-10.85,15.1-18.04,33.26-18.04c8.86,0,18.3,1.7,24.69,5.75c9.59,6.01,10.02,13.86,10.02,21.31V141.03z M150.32,123.9
	c-0.44,2.61-0.58,4.83-0.58,6.93c0,3.01,0.29,5.75,0.58,8.89c0.15,2.62,0.44,7.58,4.07,7.58c1.02,0,2.18-0.26,2.9-0.91
	c8.28-4.84,8.57-16.47,8.57-26.4v-16.86c-0.58,3.13-2.9,5.36-4.36,6.27C152.07,115.67,151.34,116.58,150.32,123.9z"/>
<path class="st0" d="M241.96,144.42c1.31,0,2.61-0.39,3.34-0.91c6.1-3.53,6.68-11.63,6.68-24.97V93.97c0-8.5-1.6-12.29-9.59-12.42
	v-0.91h38.92v55.16c0,9.67,1.02,12.81,12.35,12.81v0.78h-41.97v-12.94c-3.78,9.02-10.17,13.73-21.2,13.73
	c-5.08,0-11.33-1.31-15.83-4.18c-6.97-4.44-7.55-9.67-7.55-21.31V93.97c0-9.67-1.02-12.42-12.34-12.42v-0.91h41.68v49.02
	C236.44,139.06,236.73,144.42,241.96,144.42z"/>
<path class="st0" d="M324.31,135.8c0,8.49,0.58,12.81,6.39,12.81v0.78h-47.78v-0.78c11.33,0,12.34-3.14,12.34-12.81V93.97
	c0-9.67-1.02-12.42-12.34-12.42v-0.91h41.39v11.63c5.08-10.59,14.67-12.42,22.07-12.42c4.94,0,14.67,0.78,19.32,6.27
	c0.73,1.04,2.32,2.61,3.19,4.44c2.47-5.36,9.15-10.72,21.49-10.72c18.3,0,25.27,9.02,25.27,23.92v32.02
	c0,9.67,1.02,12.81,12.34,12.81v0.78h-47.78v-0.78c5.81,0,6.39-4.31,6.39-12.81v-34.9c0-11.11-1.6-16.08-8.13-16.08
	c-1.02,0-1.89,0.13-2.76,0.52c-3.92,1.7-5.66,4.05-5.66,10.59v39.87c0,8.49,0.58,12.81,6.39,12.81v0.78h-41.97v-0.78
	c5.81,0,6.39-4.31,6.39-12.81v-33.33c0-13.59-1.74-16.73-7.12-16.73c-4.07,0-7.26,4.05-8.42,7.58c-1.02,3.01-1.02,6.93-1.02,12.02
	V135.8z"/>
</svg>
