<svg xmlns="http://www.w3.org/2000/svg" width="153.688" height="21.188" viewBox="0 0 153.688 21.188">
  <defs>
    <style>
      .cls-1 {
        fill: #555555;
        fill-rule: evenodd;
      }
    </style>
  </defs>
  <path id="シェイプ_333_1" data-name="シェイプ 333 1" class="cls-1" d="M610.115,55A10.6,10.6,0,1,1,620.7,44.4,10.59,10.59,0,0,1,610.115,55Zm0-18.843a8.244,8.244,0,1,0,8.23,8.244A8.246,8.246,0,0,0,610.115,36.155ZM579.548,55H578.96V33.8l2.351,1.767V52.642h9.406L592.48,55H579.548Zm-16.721-8.244H555.12L551.919,55h-2.351l8.23-21.2h2.351l8.23,21.2h-2.351Zm-3.853-9.926-2.94,7.571h5.879Zm-22.338,8.749H524.879V55h-2.351V33.8l2.351,1.767v7.655h11.757V33.8l2.351,1.767V55h-2.351V45.576Zm-28.467,1.98c-0.323.376-.622,0.783-0.981,1.127a1.483,1.483,0,0,1-2.357-.163c-0.36-.455-0.655-0.962-0.974-1.45-0.345-.527-0.527-0.575-0.862-0.032a21.149,21.149,0,0,0-.951,1.985,5.358,5.358,0,0,1-.322.514,1.548,1.548,0,0,1-.393-0.59c-0.046-.886-0.023-1.774-0.024-2.662,0-.4,0-0.8,0-1.251-0.911.153-1.755,0.305-2.6,0.433a0.474,0.474,0,0,0-.427.583c-0.066,2.377-.15,4.753-0.236,7.129a1.364,1.364,0,0,1-.19.641c-0.488-2.669-.167-5.371-0.318-8.112-0.684.087-1.347,0.182-2.014,0.252-0.517.054-1.038,0.069-1.557,0.114-0.451.04-.61-0.191-0.616-0.646,0.8-.107,1.58-0.209,2.362-0.319,0.556-.077,1.111-0.162,1.666-0.248,0.538-.084.385-0.527,0.427-0.857,0.036-.277-0.049-0.615.454-0.623,0.036,0.434.069,0.827,0.108,1.3l3.062-.551c0.265-2.045.524-4.045,0.784-6.046l0.147-.025a3.52,3.52,0,0,1,.145.869c-0.112,1.279-.261,2.554-0.4,3.829-0.044.4-.11,0.789-0.171,1.223l4.484-.585c0.021,0.085.043,0.171,0.064,0.255a3.811,3.811,0,0,1-.7.341c-1.178.3-2.358,0.6-3.548,0.845a0.433,0.433,0,0,0-.431.507c0,0.786,0,1.572,0,2.4a15.318,15.318,0,0,1,1.025-1.321c0.5-.522.857-0.466,1.266,0.133,0.329,0.481.62,0.989,0.963,1.459a1.043,1.043,0,0,0,1.81.153,2.865,2.865,0,0,0,1.095-2.245,0.974,0.974,0,0,1,.163-0.681,2.568,2.568,0,0,1,.8-0.352,1.641,1.641,0,0,1,.185.723,12.62,12.62,0,0,1-.609,1.488,1.075,1.075,0,0,0,1.289-.017c0.541-.343,1.035-0.762,1.546-1.153,0.173-.132.336-0.278,0.545-0.451A2.944,2.944,0,0,1,508.169,47.557ZM489.953,45.6a10.335,10.335,0,0,0,.641,4.2c0.275,0.6.639,1.152,0.968,1.722,0.084,0.147.19,0.281,0.286,0.421l-0.225.213a8.507,8.507,0,0,1-1.1-1.182,7.642,7.642,0,0,1-1.128-3.625c-0.041-.578-0.1-1.154-0.159-1.832-0.483.588-.885,1.155-1.367,1.644a9.519,9.519,0,0,1-1.6,1.355,1.375,1.375,0,0,1-1.974-.528c-0.549.324-1.108,0.635-1.649,0.975a3.77,3.77,0,0,1-2.6.752,3.953,3.953,0,0,1-.953-0.418c0.019-.048.039-0.1,0.059-0.144l-1.26.357c-0.022-.071-0.043-0.14-0.064-0.211a3.588,3.588,0,0,1,.4-0.229,1.4,1.4,0,0,0,1.054-1.417,1.879,1.879,0,0,1,1.5-1.606,0.939,0.939,0,0,1,.724.222,0.852,0.852,0,0,1-.172.739c-0.424.508-.922,0.953-1.375,1.437a3.326,3.326,0,0,0-.33.52,1.706,1.706,0,0,0,.554.2,7.729,7.729,0,0,0,4.056-1.506,0.764,0.764,0,0,0,.191-0.524,3.338,3.338,0,0,1,1.736-2.224,0.664,0.664,0,0,1,.5.058,0.63,0.63,0,0,1,.029.444,3.351,3.351,0,0,1-1.543,2.062,2.023,2.023,0,0,0-.341.5,1.623,1.623,0,0,0,.568.208,1.56,1.56,0,0,0,.786-0.212,11.367,11.367,0,0,0,3.062-3.537,5.69,5.69,0,0,0,.3-2,9.947,9.947,0,0,1,1.65-4.348,1.662,1.662,0,0,1,.486-0.528,1.631,1.631,0,0,1,.879-0.219,1.039,1.039,0,0,1,.237.7,9.335,9.335,0,0,1-2.206,5.617A2.936,2.936,0,0,0,489.953,45.6ZM479.806,48l1.384-1.472A1.339,1.339,0,0,0,479.806,48Zm6.449-2.687a2.322,2.322,0,0,0-1.4,1.872A2.157,2.157,0,0,0,486.255,45.311Zm3.8-1.917a10.3,10.3,0,0,0,2.268-5.53C491.182,38.6,490.261,40.9,490.057,43.394ZM468.3,41.622a5.538,5.538,0,0,0-.711.451l0.057,0.167c0.708,0.048,1.42.066,2.122,0.16a3.5,3.5,0,0,1,.864.361,3.985,3.985,0,0,1-.895.258c-0.581.029-1.166-.015-1.75-0.036a0.8,0.8,0,0,1-.94-0.567,0.98,0.98,0,0,1,.468-1.288c1.581-.637,3.135-1.369,4.761-1.857,2.088-.626,4.231-1.07,6.36-1.549a6.633,6.633,0,0,1,1.418-.015c0.012,0.065.023,0.131,0.035,0.2-0.921.241-1.844,0.479-2.764,0.724A60.665,60.665,0,0,0,468.3,41.622Zm6.043-.027a1.42,1.42,0,0,1,.406-0.445,1.18,1.18,0,0,1,.239.526c-0.294,1.574-.625,3.141-0.941,4.711a1.076,1.076,0,0,0,.024.264c0.687-.225,1.344-0.467,2.016-0.651,0.648-.178,1.312-0.3,1.969-0.44l0.081,0.211a9.8,9.8,0,0,1-.894.465c-0.926.372-1.852,0.748-2.8,1.067a0.7,0.7,0,0,0-.538.8c0.014,1.426,0,2.853,0,4.28l-0.33.074a3.4,3.4,0,0,1-.373-0.946c-0.064-.922-0.034-1.85-0.068-2.774-0.016-.453-0.092-0.9-0.154-1.474,0.559-.424.251-1.251,0.435-1.941C473.757,44.084,474.023,42.832,474.346,41.6Z" transform="translate(-467 -33.813)"/>
</svg>
